<svg version="1.1" xmlns="http://www.w3.org/2000/svg" xmlns:xlink="http://www.w3.org/1999/xlink" width="119.99083" height="53.40818" viewBox="0,0,119.99083,53.40818"><defs><linearGradient x1="295.49562" y1="179.69052" x2="184.50415" y2="180.30905" gradientUnits="userSpaceOnUse" id="color-1"><stop offset="0" stop-color="#2f7eba"/><stop offset="0.506" stop-color="#3f9dd6"/><stop offset="1" stop-color="#3e97d1"/></linearGradient><linearGradient x1="295.49264" y1="179.34569" x2="184.50715" y2="180.65391" gradientUnits="userSpaceOnUse" id="color-2"><stop offset="0" stop-color="#2f7eba"/><stop offset="1" stop-color="#08c15f"/></linearGradient></defs><g transform="translate(-180.00438,-153.29602)"><g data-paper-data="{&quot;isPaintingLayer&quot;:true}" fill-rule="nonzero" stroke="none" stroke-width="1" stroke-linecap="butt" stroke-linejoin="miter" stroke-miterlimit="10" stroke-dasharray="" stroke-dashoffset="0" style="mix-blend-mode: normal"><path d="M180.00802,180.99399c-0.23867,-14.41402 11.29455,-26.3346 25.70757,-26.57326l67.70372,-1.12107c14.41302,-0.23866 26.33357,11.29256 26.57226,25.70759c0.23866,14.41302 -11.29256,26.33357 -25.70659,26.57225l-67.70372,1.12107c-14.41302,0.23866 -26.33459,-11.29355 -26.57325,-25.70657z" fill="#e7e7e7"/><path d="M184.50385,180.30975c-0.0666,-11.95181 9.56725,-21.69465 21.51907,-21.76126l67.71195,-0.37734c11.95181,-0.0666 21.69466,9.56825 21.76126,21.52007v0c0.0666,11.95081 -9.56826,21.69366 -21.52007,21.76026l-67.71195,0.37734c-11.95181,0.0666 -21.69366,-9.56826 -21.76026,-21.51907z" fill="url(#color-1)"/><text transform="translate(220,185.76875) scale(0.5,0.5)" font-size="40" xml:space="preserve" fill="#000000" fill-rule="nonzero" stroke="none" stroke-width="1" stroke-linecap="butt" stroke-linejoin="miter" stroke-miterlimit="10" stroke-dasharray="" stroke-dashoffset="0" font-family="Serif" font-weight="normal" text-anchor="start" style="mix-blend-mode: normal"><tspan x="0" dy="0">send</tspan></text><path d="M184.50686,180.65462c-0.14087,-11.95117 9.43225,-21.75368 21.38342,-21.89456l67.7083,-0.7981c11.95117,-0.14087 21.7537,9.43325 21.89457,21.38442v0c0.14086,11.95017 -9.43327,21.7527 -21.38444,21.89357l-67.7083,0.7981c-11.95117,0.14087 -21.7527,-9.43327 -21.89356,-21.38344z" fill="url(#color-2)"/><text transform="translate(220,185.76875) scale(0.5,0.5)" font-size="40" xml:space="preserve" fill="#000000" fill-rule="nonzero" stroke="none" stroke-width="1" stroke-linecap="butt" stroke-linejoin="miter" stroke-miterlimit="10" stroke-dasharray="" stroke-dashoffset="0" font-family="Serif" font-weight="normal" text-anchor="start" style="mix-blend-mode: normal"><tspan x="0" dy="0">发送</tspan></text></g></g></svg>